<svg width="19" height="15" viewBox="0 0 19 15" fill="none" xmlns="http://www.w3.org/2000/svg">
<path fill-rule="evenodd" clip-rule="evenodd" d="M0.624289 7.50006C0.624322 7.07768 0.966711 6.73529 1.38899 6.73536L15.7647 6.73531L11.1222 2.09272C10.8235 1.79409 10.8235 1.3099 11.1222 1.01126C11.4208 0.712629 11.905 0.712629 12.2036 1.01126L18.1516 6.95928C18.295 7.10268 18.3756 7.29721 18.3757 7.50006C18.3756 7.7028 18.295 7.89732 18.1516 8.04073L12.2036 13.9888C11.905 14.2874 11.4207 14.2874 11.1221 13.9888C10.8236 13.6902 10.8235 13.2059 11.1221 12.9073L15.7647 8.26471L1.38899 8.26476C0.966722 8.26469 0.624354 7.92233 0.624289 7.50006Z" fill="#0080FF"/>
</svg>
