<svg width="412" height="210" viewBox="0 0 412 210" fill="none" xmlns="http://www.w3.org/2000/svg">
<g filter="url(#filter0_d_86_245)">
<path fill-rule="evenodd" clip-rule="evenodd" d="M4 0.606995C4 1.14099 19.686 23.528 33.004 42C52.359 68.845 74 99.988 74 100.996C74 101.665 58.25 124.386 39 151.486C19.75 178.586 4 201.038 4 201.379C4 201.721 18.737 201.987 36.75 201.972L69.5 201.943L107.28 152.476C128.058 125.269 145.297 102.389 145.589 101.63C145.886 100.854 142.676 95.929 138.252 90.375C133.927 84.944 120.101 67.45 107.53 51.5C94.958 35.55 80.65 17.438 75.735 11.25L66.798 0H35.399C18.129 0 4 0.272995 4 0.606995ZM135 0.604004C135 1.239 138.442 6.164 164.983 43.5C198.819 91.098 205 99.982 205 101.015C205 101.599 189.363 124.119 170.25 151.059C151.137 178 135.35 200.482 135.167 201.021C134.954 201.646 146.565 202 167.324 202H199.814L203.721 197.25C205.87 194.637 215.003 182.825 224.016 171C233.03 159.175 243.169 145.9 246.548 141.5C271.075 109.56 277.003 101.451 276.599 100.398C276.347 99.739 258.513 76.88 236.969 49.6L197.797 0H166.399C149.129 0 135 0.272004 135 0.604004ZM266.02 0.75C266.031 1.162 272.957 11.225 281.411 23.112C325.608 85.257 336 100.079 336 100.971C336 101.51 320.258 124.124 301.017 151.225C281.776 178.326 266.026 200.844 266.017 201.264C266.008 201.684 280.737 201.909 298.748 201.764L331.497 201.5L369.748 151.6C390.787 124.155 408 101.412 408 101.06C408 100.708 390.17 77.825 368.377 50.21L328.755 0H297.377C280.12 0 266.009 0.338 266.02 0.75Z" fill="#FFEE5E"/>
</g>
<defs>
<filter id="filter0_d_86_245" x="0" y="0" width="412" height="210" filterUnits="userSpaceOnUse" color-interpolation-filters="sRGB">
<feFlood flood-opacity="0" result="BackgroundImageFix"/>
<feColorMatrix in="SourceAlpha" type="matrix" values="0 0 0 0 0 0 0 0 0 0 0 0 0 0 0 0 0 0 127 0" result="hardAlpha"/>
<feOffset dy="4"/>
<feGaussianBlur stdDeviation="2"/>
<feComposite in2="hardAlpha" operator="out"/>
<feColorMatrix type="matrix" values="0 0 0 0 0 0 0 0 0 0 0 0 0 0 0 0 0 0 0.25 0"/>
<feBlend mode="normal" in2="BackgroundImageFix" result="effect1_dropShadow_86_245"/>
<feBlend mode="normal" in="SourceGraphic" in2="effect1_dropShadow_86_245" result="shape"/>
</filter>
</defs>
</svg>
