<svg width="44" height="45" viewBox="0 0 44 45" fill="none" xmlns="http://www.w3.org/2000/svg">
<path d="M18.9547 1.36516C20.0696 1.36517 21.1594 1.6961 22.086 2.31604C23.0126 2.93597 23.7344 3.817 24.1598 4.84751C24.5852 5.87802 24.6952 7.01162 24.4758 8.10469C24.2564 9.19775 23.7174 10.2011 22.9272 10.9876C22.1371 11.7741 21.1312 12.3083 20.0371 12.5226C18.9431 12.7369 17.81 12.6216 16.7815 12.1914C15.753 11.7612 14.8753 11.0353 14.2597 10.1058C13.6441 9.17632 13.3183 8.085 13.3235 6.97014C13.3304 5.4812 13.9268 4.0556 14.9821 3.00521C16.0374 1.95481 17.4658 1.36514 18.9547 1.36516ZM18.9547 13.9928C20.3368 13.9902 21.6871 13.5783 22.8354 12.8091C23.9836 12.0399 24.8784 10.9479 25.4067 9.67074C25.9349 8.39362 26.0731 6.98865 25.8038 5.63306C25.5345 4.27748 24.8697 3.03204 23.8934 2.05385C22.917 1.07566 21.6728 0.408531 20.3177 0.136678C18.9627 -0.135174 17.5574 0.00042715 16.2793 0.52633C15.0012 1.05223 13.9075 1.94488 13.1361 3.09169C12.3648 4.2385 11.9504 5.58807 11.9452 6.97014C11.9417 7.89224 12.1206 8.80591 12.4715 9.65865C12.8223 10.5114 13.3383 11.2864 13.9897 11.939C14.6411 12.5916 15.4151 13.109 16.2672 13.4615C17.1193 13.814 18.0326 13.9945 18.9547 13.9928ZM20.1624 8.99163C20.2145 8.93368 20.2524 8.86432 20.2729 8.78909C20.2934 8.71386 20.296 8.63484 20.2805 8.55843C20.2805 8.2434 20.0442 7.8496 18.8497 7.6527C16.9333 7.33767 16.487 6.34008 16.4476 5.53936C16.4324 5.01071 16.6066 4.49403 16.9387 4.08247C17.2708 3.6709 17.7391 3.39154 18.259 3.29475V3.03221C18.2625 2.84998 18.3373 2.67638 18.4674 2.54874C18.5975 2.42109 18.7725 2.34961 18.9547 2.34964C19.1358 2.34964 19.3094 2.42153 19.4374 2.54954C19.5654 2.67755 19.6373 2.85118 19.6373 3.03221V3.32099C20.0358 3.40937 20.4082 3.58944 20.7249 3.84692C21.0417 4.10441 21.294 4.43222 21.4619 4.80429C21.532 4.97326 21.5328 5.16306 21.464 5.33258C21.3952 5.5021 21.2624 5.63769 21.0943 5.71001C20.9254 5.78014 20.7356 5.78089 20.5661 5.7121C20.3965 5.64331 20.2609 5.51052 20.1886 5.34247C20.0591 5.05703 19.8318 4.82734 19.5477 4.69492C19.2636 4.56251 18.9415 4.53609 18.6397 4.6205C18.4953 4.6205 17.7996 4.84364 17.839 5.47371C17.839 5.64435 17.839 6.09068 19.1516 6.28758C20.7268 6.55011 21.5931 7.25891 21.7769 8.38778C21.8154 8.65669 21.7954 8.93075 21.7184 9.19124C21.6414 9.45174 21.5091 9.69259 21.3306 9.89736C20.916 10.3386 20.3665 10.6295 19.7686 10.7243V10.9868C19.7703 11.0776 19.7539 11.1677 19.7204 11.2521C19.6869 11.3364 19.6369 11.4132 19.5733 11.478C19.5098 11.5428 19.4339 11.5942 19.3503 11.6293C19.2666 11.6645 19.1767 11.6826 19.086 11.6825C18.9015 11.6825 18.7245 11.6092 18.5941 11.4788C18.4636 11.3483 18.3903 11.1713 18.3903 10.9868V10.7112C17.8871 10.6462 17.4135 10.4369 17.0268 10.1084C16.64 9.77991 16.3568 9.34643 16.2113 8.86036C16.1754 8.76994 16.1592 8.67289 16.1638 8.5757C16.1685 8.47851 16.1938 8.38343 16.2382 8.29685C16.2826 8.21027 16.345 8.13418 16.4212 8.07368C16.4974 8.01318 16.5857 7.96969 16.6801 7.94609C16.7745 7.9225 16.8728 7.91932 16.9685 7.93684C17.0642 7.95436 17.1551 7.99214 17.235 8.04764C17.3149 8.10315 17.382 8.17511 17.4319 8.25867C17.4817 8.34224 17.5131 8.4355 17.5239 8.53219C17.6221 8.82289 17.8189 9.07004 18.0803 9.2307C18.3417 9.39136 18.6511 9.45537 18.9547 9.41164C19.3924 9.43276 19.8211 9.28206 20.1492 8.99163H20.1624ZM36.3604 24.2708C36.2706 24.2626 36.1833 24.2367 36.1036 24.1945C36.0239 24.1524 35.9533 24.0949 35.896 24.0253C35.8386 23.9558 35.7956 23.8755 35.7694 23.7892C35.7432 23.7029 35.7344 23.6123 35.7435 23.5226C35.7499 23.4321 35.7747 23.344 35.8163 23.2634C35.8578 23.1828 35.9154 23.1114 35.9853 23.0537C36.0553 22.996 36.1362 22.9532 36.2233 22.9277C36.3103 22.9023 36.4016 22.8948 36.4917 22.9057L37.8043 23.0238L27.8807 15.3054L16.2113 19.099C16.0909 19.1378 15.9621 19.1424 15.8393 19.1123C15.7164 19.0821 15.6044 19.0184 15.5156 18.9283L3.46551 6.77325C3.33883 6.64333 3.26792 6.46905 3.26792 6.28758C3.26792 6.10611 3.33883 5.9318 3.46551 5.80187C3.529 5.73758 3.60462 5.68653 3.688 5.65169C3.77137 5.61685 3.86083 5.59893 3.95119 5.59893C4.04155 5.59893 4.13101 5.61685 4.21438 5.65169C4.29775 5.68653 4.37337 5.73758 4.43686 5.80187L16.2507 17.6157L27.907 13.8353C28.0136 13.8019 28.1269 13.7952 28.2367 13.8158C28.3466 13.8364 28.4497 13.8837 28.537 13.9534L38.8676 22L38.3162 20.2016C38.29 20.1154 38.2811 20.0249 38.2901 19.9353C38.299 19.8456 38.3256 19.7587 38.3683 19.6793C38.411 19.6 38.469 19.5299 38.5389 19.4731C38.6088 19.4163 38.6893 19.3739 38.7757 19.3484C38.9515 19.2951 39.1412 19.3134 39.3036 19.3995C39.4659 19.4856 39.5875 19.6324 39.642 19.8078L40.8234 23.6801C40.8545 23.7834 40.8608 23.8925 40.8416 23.9986C40.8224 24.1048 40.7783 24.2048 40.713 24.2906C40.6477 24.3764 40.563 24.4455 40.4658 24.4923C40.3686 24.539 40.2618 24.5621 40.1539 24.5596L36.3604 24.2708ZM42.6217 42.6478H37.5155V31.346H42.6217V42.6478ZM43.3174 29.9808H36.7542C36.5732 29.9808 36.3996 30.0527 36.2715 30.1807C36.1435 30.3088 36.0716 30.4823 36.0716 30.6634V43.3435C36.0716 43.5246 36.1435 43.6982 36.2715 43.8262C36.3996 43.9542 36.5732 44.0261 36.7542 44.0261H43.3174C43.4985 44.0261 43.6721 43.9542 43.8001 43.8262C43.9281 43.6982 44 43.5246 44 43.3435V30.5978C43.9899 30.4236 43.9136 30.26 43.7867 30.1404C43.6597 30.0208 43.4918 29.9543 43.3174 29.9546V29.9808ZM6.48459 42.6478H1.36527V14.846H6.48459V42.6478ZM7.16717 13.4284H0.682698C0.591945 13.4284 0.502101 13.4464 0.41842 13.4815C0.334739 13.5167 0.258905 13.5681 0.195348 13.6329C0.13179 13.6977 0.0817873 13.7745 0.0482669 13.8588C0.0147465 13.9431 -0.001619 14.0333 0.000126242 14.1241V43.3435C0.000126242 43.5246 0.0720367 43.6982 0.200044 43.8262C0.328052 43.9542 0.501667 44.0261 0.682698 44.0261H7.16717C7.25791 44.0279 7.34808 44.0115 7.43241 43.978C7.51675 43.9445 7.59355 43.8945 7.65833 43.8309C7.72311 43.7673 7.77457 43.6915 7.80969 43.6078C7.84481 43.5242 7.86289 43.4343 7.86287 43.3435V14.0978C7.86287 14.0064 7.84488 13.916 7.80991 13.8316C7.77495 13.7472 7.72371 13.6705 7.65911 13.6059C7.5945 13.5413 7.51781 13.49 7.4334 13.4551C7.34899 13.4201 7.25853 13.4021 7.16717 13.4021V13.4284ZM18.5347 42.6478H13.4154V25.9904H18.5347V42.6478ZM19.2173 24.6515H12.7328C12.642 24.6497 12.5519 24.6661 12.4675 24.6996C12.3832 24.7332 12.3064 24.7831 12.2416 24.8467C12.1768 24.9102 12.1254 24.9861 12.0903 25.0698C12.0551 25.1535 12.0371 25.2433 12.0371 25.334V43.3435C12.0371 43.4343 12.0551 43.5242 12.0903 43.6078C12.1254 43.6915 12.1768 43.7673 12.2416 43.8309C12.3064 43.8945 12.3832 43.9445 12.4675 43.978C12.5519 44.0115 12.642 44.0279 12.7328 44.0261H19.2173C19.3983 44.0261 19.5719 43.9542 19.6999 43.8262C19.8279 43.6982 19.8998 43.5246 19.8998 43.3435V25.3472C19.9052 25.2543 19.8915 25.1613 19.8596 25.0739C19.8277 24.9864 19.7783 24.9065 19.7144 24.8389C19.6505 24.7713 19.5734 24.7174 19.4879 24.6807C19.4024 24.6439 19.3103 24.6251 19.2173 24.6252V24.6515ZM30.5716 42.6478H25.4654V23.2863H30.5716V42.6478ZM31.2673 21.9474H24.7829C24.6921 21.9457 24.602 21.9621 24.5176 21.9956C24.4333 22.0291 24.3565 22.0791 24.2917 22.1426C24.2269 22.2062 24.1755 22.282 24.1404 22.3657C24.1052 22.4494 24.0872 22.5392 24.0872 22.63V43.3435C24.0872 43.4343 24.1052 43.5242 24.1404 43.6078C24.1755 43.6915 24.2269 43.7673 24.2917 43.8309C24.3565 43.8945 24.4333 43.9445 24.5176 43.978C24.602 44.0115 24.6921 44.0279 24.7829 44.0261H31.2673C31.4484 44.0261 31.622 43.9542 31.75 43.8262C31.878 43.6982 31.9499 43.5246 31.9499 43.3435V22.6038C31.9499 22.5141 31.9323 22.4253 31.898 22.3425C31.8637 22.2597 31.8134 22.1845 31.75 22.1211C31.6866 22.0577 31.6114 22.0075 31.5285 21.9732C31.4457 21.9388 31.357 21.9212 31.2673 21.9212V21.9474Z" fill="#F74121"/>
</svg>
