<svg width="44" height="44" viewBox="0 0 44 44" fill="none" xmlns="http://www.w3.org/2000/svg">
<path d="M1.57936 31.6103L6.1078 28.4037L13.8428 39.3322L9.32745 42.5388C9.24662 42.5911 9.14892 42.6107 9.05414 42.5937C8.95937 42.5767 8.8746 42.5243 8.81701 42.4471L1.50083 32.1076C1.47298 32.0699 1.45292 32.0271 1.44179 31.9816C1.43065 31.9361 1.42868 31.8888 1.43599 31.8425C1.4433 31.7962 1.45973 31.7519 1.48435 31.712C1.50896 31.6721 1.54126 31.6376 1.57936 31.6103ZM8.85628 26.4536C8.89476 26.4264 8.93829 26.4072 8.98431 26.3971C9.03033 26.3869 9.07791 26.3861 9.12425 26.3947C9.17059 26.4032 9.21475 26.4209 9.25414 26.4468C9.29354 26.4726 9.32736 26.5061 9.35362 26.5452C9.83787 27.2127 16.4342 36.5444 16.6829 36.8847C16.7101 36.9232 16.7293 36.9668 16.7394 37.0128C16.7496 37.0588 16.7504 37.1064 16.7418 37.1527C16.7333 37.199 16.7156 37.2432 16.6897 37.2826C16.6639 37.322 16.6304 37.3558 16.5913 37.3821L14.8898 38.5862L7.16793 27.6577L8.85628 26.4536ZM37.5713 23.4434C37.6871 23.2721 37.8355 23.1253 38.0081 23.0114C38.1807 22.8976 38.3741 22.819 38.5772 22.78C38.7803 22.7411 38.989 22.7427 39.1915 22.7847C39.3939 22.8266 39.5861 22.9082 39.757 23.0246C39.9283 23.1445 40.0735 23.298 40.1838 23.4757C40.294 23.6535 40.367 23.8517 40.3983 24.0585C40.0861 24.1413 39.7929 24.2835 39.5345 24.4773L34.103 28.3121L37.5713 23.4434ZM7.76997 43.1932C7.89396 43.3701 8.05177 43.5207 8.23428 43.6363C8.4168 43.752 8.6204 43.8303 8.83335 43.8668C9.0463 43.9033 9.26436 43.8973 9.47497 43.849C9.68557 43.8008 9.88453 43.7113 10.0604 43.5858L17.3373 38.4291C17.5142 38.3051 17.6649 38.1473 17.7805 37.9648C17.8961 37.7823 17.9744 37.5787 18.0109 37.3657C18.0474 37.1528 18.0414 36.9347 17.9932 36.7241C17.9449 36.5135 17.8555 36.3145 17.7299 36.1387L17.5598 35.89C19.492 34.8614 21.6533 34.3392 23.842 34.3719H24.6927C24.8663 34.3719 25.0327 34.3029 25.1555 34.1802C25.2782 34.0575 25.3471 33.891 25.3471 33.7175C25.3471 33.5439 25.2782 33.3774 25.1555 33.2547C25.0327 33.132 24.8663 33.0631 24.6927 33.0631H23.842C21.3848 33.0328 18.9608 33.6321 16.8007 34.8038L11.4739 27.2913L16.4473 23.7706C17.2268 23.2108 18.1954 22.9804 19.1434 23.1293L28.9987 24.6475C29.4335 24.714 29.8286 24.9381 30.109 25.2771C30.3893 25.616 30.5353 26.0462 30.5191 26.4858C30.503 26.9253 30.3258 27.3436 30.0213 27.661C29.7168 27.9785 29.3063 28.1729 28.8678 28.2074L22.6117 27.4352C22.5258 27.4249 22.4387 27.4316 22.3553 27.455C22.272 27.4783 22.1941 27.5179 22.126 27.5714C22.058 27.6248 22.0011 27.6912 21.9587 27.7666C21.9163 27.8421 21.8891 27.9251 21.8788 28.0111C21.8685 28.097 21.8752 28.1842 21.8986 28.2675C21.9219 28.3508 21.9615 28.4288 22.015 28.4968C22.0684 28.5649 22.1348 28.6218 22.2102 28.6642C22.2857 28.7066 22.3688 28.7337 22.4547 28.744C30.6478 29.7649 27.4281 29.3984 32.611 29.9089C32.9354 29.9987 33.2748 30.0207 33.6081 29.9734C33.9414 29.9261 34.2614 29.8105 34.548 29.634L40.2805 25.5767C40.4524 25.4573 40.6461 25.3728 40.8506 25.3283C41.0551 25.2837 41.2664 25.2798 41.4724 25.3169C41.6784 25.3539 41.8751 25.4312 42.0512 25.5443C42.2273 25.6574 42.3795 25.804 42.4989 25.9759C42.6184 26.1478 42.7028 26.3415 42.7474 26.546C42.792 26.7505 42.7959 26.9618 42.7588 27.1678C42.7217 27.3738 42.6445 27.5705 42.5314 27.7466C42.4183 27.9227 42.2716 28.0749 42.0998 28.1943L36.6159 32.1207C35.4686 32.9284 34.0921 33.3459 32.6895 33.3117H27.6637C27.4902 33.3117 27.3237 33.3807 27.201 33.5034C27.0783 33.6261 27.0093 33.7925 27.0093 33.9661C27.0093 34.1397 27.0783 34.3061 27.201 34.4289C27.3237 34.5516 27.4902 34.6205 27.6637 34.6205L32.6764 34.686C34.3408 34.7259 35.974 34.2304 37.3357 33.2724L42.8065 29.346C43.2619 29.0188 43.6112 28.5652 43.8113 28.0414C44.0114 27.5175 44.0534 26.9465 43.9322 26.399C43.811 25.8515 43.5319 25.3516 43.1294 24.9612C42.7269 24.5708 42.2188 24.307 41.6679 24.2025C41.6094 23.6148 41.3707 23.0595 40.9846 22.6126C40.5985 22.1657 40.0838 21.8489 39.5108 21.7057C38.9379 21.5625 38.3347 21.5997 37.7837 21.8123C37.2327 22.025 36.7608 22.4027 36.4327 22.8937L32.3885 28.6393C32.3557 28.6961 32.311 28.7452 32.2576 28.7833L30.9488 28.6524C31.3495 28.193 31.6007 27.6222 31.6686 27.0164C31.7728 26.2166 31.5558 25.4081 31.0652 24.7679C30.5746 24.1277 29.8504 23.7079 29.051 23.6004L19.1958 22.0822C17.9166 21.8816 16.6098 22.1919 15.5573 22.946L10.597 26.4667L10.2567 25.9955C10.1327 25.8186 9.9749 25.668 9.79239 25.5524C9.60988 25.4368 9.40627 25.3584 9.19332 25.3219C8.98037 25.2854 8.7623 25.2914 8.5517 25.3396C8.3411 25.3879 8.14213 25.4774 7.9663 25.6029C4.45872 28.0896 0.898786 30.6025 0.702466 30.7596C0.524107 30.8824 0.372132 31.0397 0.255497 31.2221C0.138862 31.4046 0.0599233 31.6086 0.023333 31.822C-0.0132573 32.0355 -0.00675767 32.2541 0.0424449 32.4649C0.0916475 32.6758 0.182556 32.8748 0.309822 33.05L7.76997 43.1932Z" fill="#F74121"/>
<path d="M16.3295 13.1693L17.4289 12.7505L18.4105 13.8237C18.7408 14.1799 19.1488 14.4549 19.6029 14.6275C20.0569 14.8 20.5447 14.8653 21.0281 14.8184C20.2755 15.3574 19.7085 16.1164 19.4052 16.991H15.2432C15.1946 16.991 15.148 16.9717 15.1136 16.9373C15.0793 16.903 15.06 16.8564 15.06 16.8078C15.0207 16.1534 14.8898 13.7059 16.3295 13.1693ZM22.049 10.9182C22.039 11.0751 22.039 11.2324 22.049 11.3893C22.079 11.5822 22.1623 11.7628 22.2895 11.9108C22.4167 12.0588 22.5827 12.1683 22.7688 12.227L22.1013 12.9468C21.926 13.1385 21.7126 13.2915 21.4749 13.3962C21.2372 13.5009 20.9803 13.555 20.7205 13.555C20.4608 13.555 20.2039 13.5009 19.9661 13.3962C19.7284 13.2915 19.5151 13.1385 19.3397 12.9468L18.6984 12.2401C18.8197 12.2066 18.9346 12.1536 19.0387 12.083C19.2111 11.9531 19.344 11.7778 19.4226 11.5768C19.5012 11.3757 19.5223 11.1567 19.4837 10.9444C20.3007 11.187 21.1718 11.1779 21.9835 10.9182H22.049ZM17.9524 6.3112C19.6319 6.33186 21.2832 5.87822 22.7165 5.00241L23.096 5.40813V8.52308C22.7724 9.02707 22.2957 9.41405 21.736 9.62721C21.1763 9.84038 20.5629 9.8685 19.986 9.70744C19.4092 9.54638 18.8991 9.20463 18.5307 8.73235C18.1624 8.26007 17.9551 7.68215 17.9393 7.08341L17.9524 6.3112ZM20.7663 1.65188C21.3611 1.66984 21.9349 1.87586 22.4052 2.24036C22.8755 2.60486 23.2182 3.10906 23.3839 3.68053V3.83758C23.2388 3.72428 23.0639 3.65536 22.8805 3.63911C22.6971 3.62285 22.5128 3.65997 22.35 3.74597C21.062 4.61085 19.5431 5.067 17.9917 5.05477V4.47889C17.9811 3.74618 18.2594 3.03875 18.7664 2.50969C19.2734 1.98062 19.9684 1.67245 20.7009 1.65188H20.7663ZM31.132 5.06785L30.8964 4.81917C30.7752 4.68896 30.6221 4.59269 30.4522 4.53988C30.2823 4.48708 30.1016 4.47959 29.9279 4.51816C29.5615 4.59668 29.4306 4.85845 28.3443 5.34271C27.1117 5.898 25.7692 6.16648 24.4179 6.12797C24.3389 5.40512 24.4331 4.67386 24.6927 3.99464C25.0085 3.33708 25.5295 2.79999 26.1771 2.46435C26.8248 2.12871 27.564 2.0127 28.2833 2.13382C29.0027 2.25494 29.6631 2.60663 30.1651 3.13585C30.6672 3.66507 30.9835 4.34314 31.0666 5.06785H31.132ZM32.1267 3.68053C32.2897 3.07082 32.6567 2.53534 33.1665 2.16325C33.6762 1.79117 34.2981 1.60491 34.9285 1.63551C35.5588 1.66611 36.1597 1.91171 36.6311 2.33143C37.1024 2.75114 37.4158 3.31965 37.519 3.94228C37.3668 3.77733 37.1615 3.6712 36.9389 3.64248C36.7164 3.61377 36.4908 3.6643 36.3018 3.78523C35.1326 4.5536 33.7738 4.98389 32.3754 5.02859C32.3298 4.56478 32.2151 4.11039 32.0351 3.68053H32.1267ZM32.4277 8.54926V6.3112C33.9642 6.25363 35.4603 5.80302 36.7729 5.00241C37.1918 5.46048 37.4404 5.70916 37.5713 5.86622V7.09649C37.5875 7.71756 37.3958 8.32625 37.0266 8.82593C36.6574 9.32561 36.1319 9.68764 35.5334 9.85454C34.935 10.0214 34.2979 9.98366 33.7234 9.74718C33.1489 9.5107 32.6698 9.08908 32.3623 8.54926H32.4277ZM34.7967 13.5489C33.8281 13.5489 33.4879 12.973 32.768 12.2401C32.8893 12.2066 33.0042 12.1536 33.1083 12.083C33.2796 11.9521 33.4116 11.7767 33.4901 11.5759C33.5686 11.3752 33.5904 11.1567 33.5533 10.9444C34.404 11.2204 35.3202 11.2204 36.1709 10.9444V11.2454C36.1718 11.4675 36.2432 11.6835 36.375 11.8624C36.5068 12.0412 36.692 12.1734 36.9038 12.2401C36.1055 12.9599 35.6997 13.5489 34.7312 13.5489H34.7967ZM35.0453 20.1583H20.4653V18.4961C20.4663 17.8445 20.6626 17.2081 21.0289 16.6692C21.3952 16.1303 21.9146 15.7136 22.5201 15.4728L23.8289 14.9493L25.033 16.2581C25.3691 16.6267 25.7784 16.9213 26.2347 17.1228C26.6911 17.3243 27.1845 17.4284 27.6833 17.4284C28.1822 17.4284 28.6756 17.3243 29.1319 17.1228C29.5883 16.9213 29.9976 16.6267 30.3337 16.2581C30.7917 15.7607 31.2106 15.3157 31.5639 14.9493C32.1674 15.152 32.7575 15.3924 33.3308 15.6691C33.8262 15.9536 34.2381 16.3633 34.5253 16.8572C34.8124 17.3511 34.9647 17.9118 34.9668 18.483L35.0453 20.1583ZM24.0645 12.7243L24.9152 13.0515V13.1824L22.9389 13.9415C23.0044 13.863 23.9205 12.8029 23.9991 12.7243H24.0645ZM23.4232 10.1067C23.5957 10.5527 23.8387 10.9681 24.143 11.337L23.3316 11.036V10.1853L23.4232 10.1067ZM30.3598 14.3996L29.4699 15.3812C29.2526 15.6156 28.9894 15.8028 28.6967 15.9311C28.404 16.0595 28.088 16.1262 27.7684 16.1272C26.5512 16.1272 26.0539 15.3812 25.1508 14.4257L25.4518 14.308C25.6609 14.228 25.8405 14.0862 25.9668 13.9015C26.0931 13.7167 26.16 13.4978 26.1586 13.274V12.7898C27.2016 13.1497 28.3352 13.1497 29.3782 12.7898V13.3002C29.3778 13.5255 29.4466 13.7456 29.5754 13.9305C29.7041 14.1155 29.8866 14.2563 30.0981 14.3341L30.3598 14.3996ZM32.467 13.7975L30.6478 13.0908V12.9468L31.3283 12.6851H31.42L32.467 13.7975ZM32.2707 10.2507V11.036L31.3545 11.3893C31.6751 10.9959 31.9313 10.5542 32.1136 10.0805L32.2707 10.2507ZM30.1112 5.82695L31.1451 6.93944V8.44455C31.1413 8.97698 31.0107 9.50085 30.764 9.97273C30.5174 10.4446 30.1619 10.8509 29.7269 11.1579C29.2919 11.465 28.79 11.664 28.2627 11.7383C27.7355 11.8127 27.1982 11.7604 26.6952 11.5857C26.0286 11.3727 25.4466 10.954 25.0327 10.3896C24.6189 9.8253 24.3945 9.14436 24.3917 8.44455V7.38443C26.3847 7.43045 28.3484 6.89862 30.0457 5.85314L30.1112 5.82695ZM15.3087 18.2605H19.235C19.2281 18.3301 19.2281 18.4003 19.235 18.4699V20.1321C19.235 20.4792 19.3729 20.8121 19.6184 21.0576C19.8638 21.303 20.1967 21.4409 20.5438 21.4409H34.9406C35.2877 21.4409 35.6206 21.303 35.8661 21.0576C36.1115 20.8121 36.2494 20.4792 36.2494 20.1321V18.2605H40.8695C41.1958 18.2605 41.5087 18.1309 41.7394 17.9002C41.9701 17.6695 42.0998 17.3566 42.0998 17.0303V16.7947C42.0998 16.5329 42.0998 16.2581 42.0998 15.9571C42.0964 15.8728 42.0764 15.7901 42.0411 15.7135C42.0057 15.637 41.9556 15.5682 41.8936 15.5111C41.8316 15.4539 41.7589 15.4096 41.6798 15.3806C41.6006 15.3516 41.5165 15.3384 41.4323 15.3419C41.261 15.3521 41.1005 15.4291 40.9855 15.5564C40.8704 15.6837 40.81 15.851 40.8171 16.0225C40.8171 16.2842 40.8171 16.5329 40.8171 16.7816V16.9648H36.0269C35.7296 16.1014 35.1774 15.3484 34.4433 14.8053H34.7312C35.1685 14.8023 35.6006 14.7102 36.0011 14.5347C36.4017 14.3592 36.7622 14.1039 37.0609 13.7845L38.0556 12.6851L39.1288 13.0908C39.3741 13.1867 39.6035 13.3191 39.8094 13.4834C39.8763 13.5353 39.9528 13.5735 40.0345 13.5956C40.1162 13.6178 40.2015 13.6236 40.2854 13.6127C40.3694 13.6017 40.4503 13.5742 40.5236 13.5318C40.5969 13.4894 40.6611 13.4329 40.7124 13.3656C40.7643 13.2987 40.8025 13.2222 40.8246 13.1405C40.8468 13.0588 40.8526 12.9735 40.8417 12.8896C40.8307 12.8056 40.8033 12.7246 40.7609 12.6514C40.7185 12.5781 40.662 12.5139 40.5946 12.4626C40.2938 12.2251 39.9584 12.0354 39.5999 11.8998L37.2703 11.0621V10.2114C37.7334 9.83905 38.106 9.36638 38.3599 8.82907C38.6138 8.29176 38.7425 7.70382 38.7361 7.10957V4.49197C38.7423 3.60405 38.457 2.73861 37.924 2.02841C37.3911 1.31821 36.6398 0.80248 35.7855 0.560307C34.9312 0.318135 34.0211 0.362899 33.1947 0.68774C32.3683 1.01258 31.6713 1.59957 31.2106 2.35865C30.7758 1.83435 30.2308 1.41236 29.6143 1.12272C28.9979 0.833081 28.3252 0.682907 27.6441 0.682907C26.963 0.682907 26.2903 0.833081 25.6738 1.12272C25.0574 1.41236 24.5124 1.83435 24.0776 2.35865C23.7142 1.75557 23.1991 1.25821 22.5837 0.916065C21.9683 0.573924 21.2741 0.398936 20.57 0.40853C19.4973 0.422322 18.4734 0.859028 17.721 1.62371C16.9686 2.38838 16.5485 3.41919 16.552 4.49197V7.10957C16.5469 7.71913 16.6838 8.32149 16.9519 8.86897C17.2199 9.41644 17.6118 9.89399 18.0964 10.2638V11.0621L17.5074 11.2846L15.7536 11.9652C15.1358 12.215 14.6291 12.6799 14.3271 13.274C13.8131 14.3813 13.6052 15.606 13.725 16.8209C13.7267 17.0173 13.7675 17.2115 13.845 17.392C13.9226 17.5725 14.0353 17.7358 14.1766 17.8722C14.318 18.0087 14.4851 18.1157 14.6682 18.1868C14.8513 18.258 15.0468 18.2919 15.2432 18.2867L15.3087 18.2605Z" fill="#F74121"/>
</svg>
