<svg width="38" height="44" viewBox="0 0 38 44" fill="none" xmlns="http://www.w3.org/2000/svg">
<path d="M18.9857 28.4092C16.9724 28.4092 15.0044 27.8123 13.3305 26.6938C11.6565 25.5753 10.3518 23.9855 9.58142 22.1255C8.81099 20.2655 8.60941 18.2189 9.00217 16.2443C9.39493 14.2698 10.3644 12.456 11.788 11.0324C13.2115 9.60888 15.0253 8.63943 16.9998 8.24667C18.9744 7.85391 21.021 8.05546 22.881 8.82589C24.741 9.59632 26.3308 10.901 27.4493 12.575C28.5678 14.2489 29.1647 16.2169 29.1647 18.2302C29.161 20.9287 28.0873 23.5155 26.1792 25.4237C24.2711 27.3318 21.6842 28.4054 18.9857 28.4092ZM30.6516 18.2302C30.6544 15.9188 29.9714 13.6586 28.6891 11.7356C27.4067 9.81263 25.5827 8.3133 23.4478 7.42748C21.3129 6.54166 18.9633 6.30916 16.6962 6.75939C14.4291 7.20962 12.3466 8.32235 10.7122 9.95672C9.07785 11.5911 7.96513 13.6736 7.5149 15.9407C7.06468 18.2077 7.29719 20.5574 8.18301 22.6923C9.06882 24.8272 10.5681 26.6512 12.4911 27.9335C14.4141 29.2159 16.6743 29.8989 18.9857 29.8961C22.0785 29.8923 25.0436 28.662 27.2305 26.475C29.4175 24.288 30.6478 21.323 30.6516 18.2302Z" fill="#F74121"/>
<path d="M30.1655 35.2144C29.9704 35.1661 29.7641 35.1958 29.5906 35.2973C29.4171 35.3987 29.29 35.5639 29.2363 35.7576L27.9067 40.7614L25.2619 36.1722C26.224 35.5262 26.9748 34.6114 27.4206 33.5416C27.7262 32.8375 28.1684 32.2009 28.7216 31.6688C29.4056 31.2911 30.1598 31.0576 30.9375 30.9826L31.8239 30.7967L35.155 36.5153L30.1655 35.2144ZM18.9857 33.3272C17.9788 33.4176 17.0034 33.7249 16.1264 34.2279C15.3793 34.7123 14.4999 34.9521 13.6102 34.9141C12.9383 34.6854 12.4236 33.7275 11.909 32.8126C11.4986 31.909 10.9046 31.1008 10.1648 30.4393C9.2906 29.9229 8.31534 29.6011 7.30549 29.4958C6.39229 29.4559 5.51572 29.1253 4.80361 28.5522C4.47811 27.7077 4.42806 26.782 4.66065 25.9073C4.95152 24.9451 4.94323 23.9173 4.63686 22.9599C4.3305 22.0025 3.74052 21.1607 2.94507 20.5462C2.20165 19.7885 1.51542 18.9879 1.51542 18.2445C1.51542 17.501 2.27313 16.7147 2.94507 15.9427C3.67074 15.2902 4.24212 14.4845 4.61776 13.5838C4.83264 12.5994 4.83264 11.5802 4.61776 10.5958C4.38517 9.72122 4.43521 8.79543 4.76072 7.95098C5.17532 7.37912 6.19037 7.179 7.2626 6.99314C8.27244 6.88781 9.2477 6.56597 10.1219 6.04957C10.8669 5.39283 11.4617 4.58342 11.8661 3.67635C12.3807 2.76138 12.8954 1.80349 13.5673 1.58904C14.4565 1.53694 15.3387 1.77254 16.0835 2.26097C16.9605 2.764 17.9359 3.07127 18.9428 3.16166C19.9489 3.06691 20.9234 2.75993 21.8021 2.26097C22.7314 1.83208 23.6749 1.37459 24.304 1.58904C24.933 1.80349 25.5049 2.76138 26.0053 3.67635C26.4098 4.5871 27.0102 5.39742 27.7637 6.04957C28.637 6.56804 29.6127 6.89004 30.623 6.99314C31.5356 7.04762 32.4093 7.38207 33.1249 7.95098C33.4504 8.79543 33.5005 9.72122 33.2679 10.5958C32.9698 11.5554 32.9746 12.5834 33.2815 13.5401C33.5885 14.4968 34.1828 15.3357 34.9834 15.9427C35.7126 16.7147 36.4131 17.5153 36.4131 18.2445C36.4131 18.9736 35.6554 19.7885 34.9834 20.5462C34.2611 21.2048 33.6862 22.0086 33.2965 22.9051C33.0744 23.8935 33.0744 24.9189 33.2965 25.9073C33.529 26.782 33.479 27.7077 33.1535 28.5522C32.4414 29.1253 31.5648 29.4559 30.6516 29.4958C29.6413 29.5989 28.6656 29.9209 27.7923 30.4393C27.0419 31.0943 26.442 31.9039 26.0339 32.8126C25.5335 33.7418 25.0188 34.6854 24.3326 34.9141C23.4468 34.9579 22.5702 34.7175 21.8307 34.2279C20.9563 33.7309 19.9868 33.4239 18.9857 33.3272ZM10.0647 40.7614L8.72084 35.7576C8.67032 35.565 8.546 35.4 8.37477 35.2983C8.20354 35.1967 7.99917 35.1665 7.80587 35.2144L2.80211 36.5582L6.13318 30.8396C6.42552 30.9119 6.72137 30.9691 7.01956 31.0112C7.79369 31.1038 8.54455 31.3363 9.23551 31.6974C9.78537 32.2324 10.2271 32.8683 10.5365 33.5703C10.9938 34.6173 11.7371 35.5141 12.681 36.1579L10.0647 40.7614ZM33.2822 30.3107C33.7123 30.11 34.0857 29.8053 34.3687 29.4243C34.9765 28.2836 35.1248 26.9537 34.7833 25.7072C34.5144 24.9701 34.4977 24.1645 34.7357 23.4168C34.9737 22.6692 35.4531 22.0216 36.0986 21.5755C37.1411 20.7482 37.8226 19.5492 38 18.2301C37.815 16.917 37.141 15.7222 36.1129 14.8848C35.5539 14.3813 35.0975 13.7745 34.769 13.0977C34.6123 12.324 34.6123 11.5268 34.769 10.7531C35.0264 10.1478 35.1225 9.48607 35.0477 8.83256C34.9729 8.17905 34.73 7.55609 34.3425 7.02456C33.955 6.49303 33.4363 6.07109 32.837 5.79997C32.2377 5.52884 31.5783 5.41779 30.9233 5.47768C30.1528 5.3985 29.405 5.17029 28.7216 4.80574C28.1615 4.27647 27.7141 3.63944 27.4063 2.93291C26.9474 1.68938 26.0325 0.667102 24.8473 0.0736173C23.5937 -0.142293 22.305 0.128744 21.2445 0.831328C20.5428 1.2282 19.7709 1.4855 18.9714 1.58904C18.176 1.48728 17.4084 1.22981 16.7126 0.831328C15.6478 0.126478 14.3537 -0.144597 13.0956 0.0736173C11.8375 0.473918 11.1798 1.70341 10.5365 2.93291C10.2234 3.63286 9.78218 4.26806 9.23551 4.80574C8.54788 5.1724 7.79503 5.40068 7.01956 5.47768C5.71894 5.54041 4.49147 6.09792 3.58841 7.03603C2.98545 8.17856 2.84224 9.50837 3.18811 10.7531C3.33044 11.5281 3.33044 12.3227 3.18811 13.0977C2.85233 13.7738 2.39148 14.3802 1.82995 14.8848C0.817542 15.7273 0.163359 16.9232 0 18.2301C0.187027 19.5386 0.860978 20.7282 1.88713 21.5612C2.44545 22.0687 2.90581 22.6744 3.2453 23.3483C3.38763 24.1233 3.38763 24.9178 3.2453 25.6929C2.90667 26.9382 3.04959 28.2654 3.6456 29.41C3.93464 29.7852 4.30649 30.0886 4.73213 30.2964L0.657636 37.3588C0.582433 37.488 0.5471 37.6365 0.556083 37.7856C0.565066 37.9348 0.617964 38.078 0.708121 38.1972C0.798278 38.3164 0.92167 38.4062 1.06277 38.4555C1.20388 38.5047 1.35639 38.5112 1.50113 38.4739L7.49134 36.8155L9.12114 42.8487C9.16249 42.9916 9.24356 43.1199 9.35491 43.2185C9.46626 43.3172 9.60333 43.3823 9.75019 43.4062H9.82167C9.95267 43.4092 10.082 43.3761 10.1954 43.3105C10.3089 43.245 10.4021 43.1495 10.465 43.0345L14.2965 36.4009C15.1477 36.2486 15.9686 35.9589 16.7269 35.5431C17.4286 35.1463 18.2005 34.889 19 34.7854C19.7954 34.8872 20.563 35.1447 21.2588 35.5431C22.0163 35.9608 22.8374 36.2506 23.6892 36.4009L27.5207 43.0345C27.5836 43.1495 27.6768 43.245 27.7903 43.3105C27.9037 43.3761 28.033 43.4092 28.164 43.4062H28.2641C28.4116 43.384 28.5495 43.3195 28.6612 43.2206C28.7728 43.1216 28.8534 42.9924 28.8932 42.8487L30.523 36.8155L36.5561 38.4454C36.6993 38.4817 36.8501 38.4753 36.9898 38.4271C37.1295 38.3788 37.2521 38.2908 37.3424 38.1737C37.4225 38.0477 37.465 37.9013 37.465 37.752C37.465 37.6026 37.4225 37.4563 37.3424 37.3302L33.2822 30.3107Z" fill="#F74121"/>
<path d="M26.0052 13.6553C25.9371 13.5835 25.8551 13.5263 25.7641 13.4872C25.6732 13.4481 25.5752 13.428 25.4763 13.428C25.3773 13.428 25.2793 13.4481 25.1884 13.4872C25.0974 13.5263 25.0154 13.5835 24.9473 13.6553L17.3702 21.2324L13.0812 16.9435C12.9409 16.8032 12.7507 16.7244 12.5523 16.7244C12.3539 16.7244 12.1636 16.8032 12.0233 16.9435C11.883 17.0838 11.8042 17.2741 11.8042 17.4725C11.8042 17.6709 11.883 17.8611 12.0233 18.0014L16.8984 22.8622C16.9669 22.9336 17.049 22.9906 17.1398 23.0299C17.2306 23.0692 17.3284 23.09 17.4274 23.091C17.5286 23.0911 17.6288 23.0709 17.7221 23.0316C17.8154 22.9923 17.8999 22.9347 17.9706 22.8622L26.0624 14.7561C26.1337 14.6815 26.189 14.5931 26.2249 14.4963C26.2608 14.3996 26.2766 14.2964 26.2713 14.1934C26.2659 14.0903 26.2395 13.9894 26.1938 13.8969C26.1481 13.8043 26.0839 13.7221 26.0052 13.6553Z" fill="#F74121"/>
</svg>
