<svg width="138" height="46" viewBox="0 0 138 46" fill="none" xmlns="http://www.w3.org/2000/svg">
<path fill-rule="evenodd" clip-rule="evenodd" d="M5.87114 8.00322V28.5452H0V0H8.45783L19.5129 20.2741V0H25.3735V28.524H17.0707L5.87114 8.00322Z" fill="black"/>
<path fill-rule="evenodd" clip-rule="evenodd" d="M41.2425 17.698H38.3245V28.5452H31.7169V0H41.905C45.9671 0 48.9931 0.704819 50.9831 2.11446C52.973 3.52409 53.9668 5.80771 53.9645 8.9653C53.9645 11.1972 53.4723 12.944 52.4879 14.2056C51.4178 15.5154 49.9749 16.4691 48.3506 16.9403L55.3459 28.5346H47.7515L41.2425 17.698ZM38.3245 5.18042V12.796H41.9861C43.7975 12.796 45.1554 12.5164 46.0599 11.9573C46.9621 11.4004 47.4202 10.3785 47.4202 8.96882C47.4202 7.55918 46.9691 6.57596 46.0599 6.01915C45.1507 5.46235 43.7693 5.18042 41.905 5.18042H38.3245Z" fill="black"/>
<path fill-rule="evenodd" clip-rule="evenodd" d="M84.8778 21.9271C84.4087 23.2481 83.6571 24.4507 82.6753 25.4512C81.6433 26.4719 80.3992 27.2528 79.0314 27.7384C77.417 28.3073 75.7139 28.5829 74.0025 28.5524C72.0421 28.5809 70.0933 28.2464 68.2547 27.5657C66.6231 26.9518 65.1485 25.9828 63.9377 24.7288C62.7352 23.4418 61.8157 21.9172 61.2382 20.2532C60.566 18.3356 60.2345 16.3152 60.2585 14.2834C60.2239 12.2631 60.5277 10.2512 61.1572 8.33118C61.7171 6.64699 62.6467 5.10936 63.8778 3.83091C65.1329 2.57481 66.6505 1.61204 68.3216 1.01163C70.2719 0.323276 72.3293 -0.012054 74.3972 0.0213636C76.2463 -0.0239436 78.0921 0.199225 79.8771 0.683895C81.0879 1.01674 82.2483 1.51103 83.3272 2.15344L82.5766 7.35148C81.5053 6.69741 80.3677 6.15874 79.1829 5.74449C77.786 5.27322 76.3188 5.04438 74.8447 5.06787C71.8493 5.06787 69.7043 5.87371 68.4097 7.4854C67.1152 9.09708 66.4668 11.3607 66.4644 14.2763C66.4644 17.2272 67.0894 19.5014 68.3393 21.099C69.5891 22.6966 71.4898 23.4977 74.0412 23.5024C75.9443 23.5024 77.3656 23.0126 78.3054 22.0329C79.2936 20.9025 79.7997 19.4299 79.715 17.9308L76.9169 17.8991V12.8984H85.6426V17.4551C85.657 18.9795 85.398 20.4941 84.8778 21.9271Z" fill="black"/>
<path fill-rule="evenodd" clip-rule="evenodd" d="M9.57144 43.424C9.38544 43.9337 9.09221 44.3976 8.71156 44.7843C8.30969 45.1757 7.82919 45.4772 7.30192 45.6688C6.67432 45.8912 6.01178 45.9987 5.34606 45.986C4.58609 45.9992 3.83045 45.8689 3.11883 45.6019C2.48192 45.3617 1.90735 44.9811 1.43783 44.4883C0.966053 43.9921 0.605613 43.401 0.380603 42.7544C0.118994 42.0123 -0.0075222 41.2293 0.00705005 40.4426C-0.00590173 39.6589 0.113234 38.8785 0.359459 38.1343C0.577935 37.4815 0.939092 36.8856 1.41669 36.3899C1.90393 35.8952 2.49493 35.5148 3.14702 35.2763C3.90189 35.0061 4.69945 34.8747 5.50111 34.8886C6.22053 34.8703 6.93879 34.9569 7.63319 35.1459C8.10239 35.2743 8.55351 35.4614 8.97587 35.7027L8.66927 37.715C8.2421 37.4836 7.79215 37.297 7.32659 37.1582C6.78012 36.9714 6.20541 36.8808 5.62798 36.8903C4.4615 36.8903 3.61572 37.2075 3.11178 37.8313C2.56654 38.5993 2.30042 39.5307 2.35762 40.4708C2.29856 41.4075 2.55543 42.3369 3.08711 43.1103C3.35599 43.4305 3.69735 43.6819 4.08286 43.8437C4.46838 44.0055 4.88692 44.0731 5.30376 44.0407C5.60383 44.0667 5.90604 44.0307 6.19159 43.9349C6.47714 43.8391 6.73993 43.6856 6.96361 43.4839C7.16355 43.2673 7.31827 43.013 7.41871 42.7358C7.51916 42.4587 7.56332 42.1643 7.54861 41.8699H6.64292V39.9457H9.85689V41.7078C9.86118 42.292 9.76461 42.8726 9.57144 43.424Z" fill="black"/>
<path fill-rule="evenodd" clip-rule="evenodd" d="M23.2732 41.7709H22.1842V45.9998H19.7173V34.8989H23.5304C25.0458 34.8989 26.1735 35.1703 26.9135 35.72C27.3003 36.041 27.6031 36.4513 27.7959 36.9155C27.9887 37.3796 28.0656 37.8837 28.0201 38.3843C28.0646 39.1077 27.8675 39.8254 27.4598 40.4247C27.072 40.9304 26.5342 41.3005 25.9233 41.4819L28.5276 45.9998H25.6801L23.2732 41.7709ZM22.1842 36.9006V39.8609H23.5445C24.0695 39.8959 24.594 39.7849 25.0599 39.5402C25.2397 39.4106 25.3829 39.2367 25.4756 39.0354C25.5682 38.8341 25.6071 38.6122 25.5885 38.3913C25.6107 38.1696 25.5734 37.946 25.4805 37.7434C25.3876 37.5409 25.2424 37.3668 25.0599 37.2389C24.5845 36.9885 24.0489 36.875 23.5128 36.9112L22.1842 36.9006Z" fill="black"/>
<path fill-rule="evenodd" clip-rule="evenodd" d="M43.3393 45.9893C42.6366 45.9954 41.9385 45.8761 41.2777 45.6369C40.6485 45.4083 40.0753 45.0478 39.5967 44.5797C39.1038 44.0937 38.7194 43.5088 38.469 42.8634C38.1824 42.1013 38.0425 41.2918 38.0567 40.4776C38.0425 39.6589 38.1823 38.8448 38.469 38.0777C38.7169 37.4228 39.1013 36.8281 39.5967 36.3333C40.0751 35.8589 40.6478 35.4903 41.2777 35.2514C41.9376 35.0088 42.6364 34.8893 43.3393 34.899C44.0409 34.8931 44.7378 35.0124 45.3974 35.2514C46.0259 35.4816 46.5987 35.8419 47.0784 36.3086C47.5717 36.7964 47.9571 37.3823 48.2096 38.0284C48.7688 39.571 48.7688 41.2609 48.2096 42.8035C47.9589 43.463 47.5736 44.0631 47.0784 44.5656C46.5984 45.038 46.0262 45.4063 45.3974 45.6475C44.7376 45.8845 44.0403 46.0003 43.3393 45.9893ZM43.3393 44.0229C43.722 44.0289 44.1026 43.9668 44.4635 43.8396C44.809 43.7108 45.1167 43.4976 45.3586 43.2194C45.6372 42.8931 45.8426 42.511 45.9613 42.0987C46.2538 40.9995 46.2538 39.843 45.9613 38.7438C45.8435 38.3312 45.6379 37.9489 45.3586 37.6231C45.1186 37.3427 44.8103 37.1291 44.4635 37.0029C43.7343 36.7491 42.9408 36.7491 42.2116 37.0029C41.8615 37.1485 41.5562 37.3844 41.3271 37.6865C41.0518 38.0121 40.8498 38.3931 40.735 38.8037C40.4425 39.9041 40.4425 41.0618 40.735 42.1621C40.8498 42.5727 41.0518 42.9538 41.3271 43.2793C41.5716 43.5357 41.8753 43.7281 42.2116 43.8396C42.5741 43.9654 42.9557 44.0274 43.3393 44.0229Z" fill="black"/>
<path fill-rule="evenodd" clip-rule="evenodd" d="M58.3238 34.8887H60.6708V41.7395C60.6439 42.0427 60.6811 42.3481 60.7801 42.6359C60.8791 42.9237 61.0376 43.1874 61.2452 43.4099C61.6633 43.7745 62.2065 43.9628 62.7606 43.935C63.0302 43.9545 63.3009 43.9179 63.5557 43.8276C63.8104 43.7372 64.0437 43.595 64.2407 43.4099C64.6194 42.9396 64.8012 42.341 64.7482 41.7395V34.8887H66.7675V41.9087C66.8088 42.4572 66.7362 43.0084 66.5542 43.5275C66.3723 44.0466 66.0849 44.5225 65.7103 44.9253C65.3002 45.2934 64.8212 45.5764 64.3009 45.7578C63.7807 45.9393 63.2295 46.0157 62.6795 45.9825C62.0908 45.9882 61.5047 45.9026 60.9422 45.7288C60.435 45.5745 59.9648 45.3178 59.5607 44.9746C59.1688 44.6301 58.8582 44.2028 58.6515 43.7236C58.428 43.1855 58.3165 42.6076 58.3238 42.025V34.8887Z" fill="black"/>
<path fill-rule="evenodd" clip-rule="evenodd" d="M80.2577 42.2505V45.9896H77.8754V34.8887H81.1669C81.8046 34.8817 82.4409 34.9491 83.0629 35.0896C83.5705 35.2009 84.0501 35.4143 84.4725 35.7168C84.8519 36.0035 85.1506 36.3835 85.3395 36.8199C85.5489 37.3328 85.6497 37.8836 85.6355 38.4374C85.651 39.0274 85.5442 39.6141 85.3218 40.1607C85.1294 40.6254 84.8227 41.0339 84.4302 41.3483C84.0138 41.6738 83.5335 41.908 83.0206 42.0355C82.4167 42.1928 81.7945 42.2687 81.1705 42.2611L80.2577 42.2505ZM80.2577 36.9009V40.2524H81.1669C81.7052 40.2827 82.2403 40.1514 82.7034 39.8753C82.8906 39.7153 83.0355 39.5117 83.1253 39.2825C83.215 39.0532 83.2468 38.8053 83.218 38.5608C83.218 37.4683 82.5131 36.915 81.1352 36.915L80.2577 36.9009Z" fill="black"/>
<path d="M103.076 11.1011H91.9753V17.4444H103.076V11.1011Z" fill="#0080FF"/>
<path d="M109.42 17.4443H103.076V28.5452H109.42V17.4443Z" fill="#0080FF"/>
<path d="M109.42 0H103.076V11.1009H109.42V0Z" fill="#0080FF"/>
<path d="M120.52 11.1011H109.42V17.4444H120.52V11.1011Z" fill="#0080FF"/>
<path d="M103.076 28.5449H91.9753V34.8883H103.076V28.5449Z" fill="#FBDB0A"/>
<path d="M109.42 34.8887H103.076V45.9896H109.42V34.8887Z" fill="#FBDB0A"/>
<path d="M120.521 28.5449H109.42V34.8883H120.521V28.5449Z" fill="#FBDB0A"/>
<path d="M126.864 34.8887H120.521V45.9896H126.864V34.8887Z" fill="#01228A"/>
<path d="M126.864 17.4443H120.521V28.5452H126.864V17.4443Z" fill="#01228A"/>
<path d="M137.965 28.5449H126.864V34.8883H137.965V28.5449Z" fill="#01228A"/>
</svg>
