<svg width="48" height="37" viewBox="0 0 48 37" fill="none" xmlns="http://www.w3.org/2000/svg">
<g filter="url(#filter0_dd_86_327)">
<path fill-rule="evenodd" clip-rule="evenodd" d="M36.1448 0.0258836C38.0754 0.163756 39.9197 0.900913 41.4089 2.1297C42.2271 2.80486 42.7963 3.52209 43.2412 4.43848C43.6522 5.28498 43.8535 6.01512 43.9572 7.03441C44.082 8.26218 43.9267 9.92535 43.5862 11.006C43.4314 11.4976 42.9707 12.4496 42.6984 12.8406C41.9245 13.952 40.7164 14.824 39.0005 15.5097C38.308 15.7864 37.539 15.9917 36.6086 16.1483C36.0311 16.2454 35.0068 16.3531 34.6599 16.3531C34.5624 16.3531 34.5572 16.3648 34.585 16.5196C34.6403 16.8265 35.0467 18.013 35.2379 18.4257C35.5095 19.012 35.8657 19.6134 36.2508 20.1362C37.2069 21.434 39.0216 22.877 41.2489 24.1106C41.7734 24.4011 43.139 25.0444 43.534 25.1871L43.6971 25.246V27.123C43.6971 28.1553 43.6803 29 43.6598 29C43.5748 29 42.1824 28.4963 41.414 28.1876C38.946 27.1961 36.5372 25.9561 34.8909 24.8299C32.2781 23.0424 30.1521 20.7961 28.6435 18.229C27.2658 15.8848 26.649 13.6954 26.5757 10.8896C26.4971 7.88393 27.1946 5.31795 28.685 3.12982C29.0563 2.58467 29.7684 1.83944 30.2739 1.467C30.7369 1.12585 31.6298 0.663551 32.2016 0.468967C33.2523 0.111438 34.842 -0.067215 36.1448 0.0258836ZM13.5385 0.0235761C14.847 0.118583 15.9077 0.405955 17.061 0.977948C19.0655 1.97203 20.4663 3.50346 21.0383 5.32598C21.3548 6.33436 21.4536 7.11895 21.4181 8.34347C21.3744 9.8512 21.1426 10.9037 20.6169 11.9813C20.0599 13.1231 19.3092 13.9412 18.1765 14.641C16.5333 15.6562 14.7786 16.1717 12.4187 16.3326C12.1855 16.3484 11.9947 16.378 11.9947 16.3981C11.9947 16.5041 12.317 17.5543 12.4724 17.9548C13.2072 19.8481 14.3558 21.2092 16.5391 22.7735C17.7515 23.6421 19.5513 24.6302 20.8553 25.143L21.1271 25.2499V27.1249C21.1271 28.1562 21.1117 29 21.0928 29C21.074 29 20.7756 28.9026 20.4297 28.7837C17.6778 27.8371 14.3244 26.2021 12.3208 24.8302C9.25709 22.7324 6.88967 20.0347 5.38778 16.93C4.51442 15.1247 4.0779 13.2294 4.00797 10.9394C3.91925 8.03418 4.57144 5.50983 5.96822 3.35165C7.08224 1.63039 8.74472 0.537127 10.7876 0.182438C11.7237 0.019893 12.7065 -0.0368626 13.5385 0.0235761Z" fill="#F74121"/>
</g>
<defs>
<filter id="filter0_dd_86_327" x="0" y="0" width="48" height="37" filterUnits="userSpaceOnUse" color-interpolation-filters="sRGB">
<feFlood flood-opacity="0" result="BackgroundImageFix"/>
<feColorMatrix in="SourceAlpha" type="matrix" values="0 0 0 0 0 0 0 0 0 0 0 0 0 0 0 0 0 0 127 0" result="hardAlpha"/>
<feOffset dy="4"/>
<feGaussianBlur stdDeviation="2"/>
<feComposite in2="hardAlpha" operator="out"/>
<feColorMatrix type="matrix" values="0 0 0 0 0 0 0 0 0 0 0 0 0 0 0 0 0 0 0.25 0"/>
<feBlend mode="normal" in2="BackgroundImageFix" result="effect1_dropShadow_86_327"/>
<feColorMatrix in="SourceAlpha" type="matrix" values="0 0 0 0 0 0 0 0 0 0 0 0 0 0 0 0 0 0 127 0" result="hardAlpha"/>
<feOffset dy="4"/>
<feGaussianBlur stdDeviation="2"/>
<feComposite in2="hardAlpha" operator="out"/>
<feColorMatrix type="matrix" values="0 0 0 0 0 0 0 0 0 0 0 0 0 0 0 0 0 0 0.25 0"/>
<feBlend mode="normal" in2="effect1_dropShadow_86_327" result="effect2_dropShadow_86_327"/>
<feBlend mode="normal" in="SourceGraphic" in2="effect2_dropShadow_86_327" result="shape"/>
</filter>
</defs>
</svg>
